<?xml version="1.0" standalone="no"?>
<!DOCTYPE svg PUBLIC "-//W3C//DTD SVG 20010904//EN"
 "http://www.w3.org/TR/2001/REC-SVG-20010904/DTD/svg10.dtd">
<svg version="1.0" xmlns="http://www.w3.org/2000/svg"
 width="480.000000pt" height="480.000000pt" viewBox="0 0 480.000000 480.000000"
 preserveAspectRatio="xMidYMid meet">
<metadata>
Created by potrace 1.14, written by Peter Selinger 2001-2017
</metadata>
<g transform="translate(0.000000,480.000000) scale(0.100000,-0.100000)"
fill="#000000" stroke="none">
<path d="M1540 3469 c-139 -24 -258 -117 -326 -254 -39 -78 -39 -80 -39 -195
0 -115 0 -117 39 -196 47 -94 128 -179 208 -217 120 -57 289 -57 404 -2 106
52 206 169 239 280 28 99 16 257 -28 341 -51 100 -171 200 -271 229 -71 20
-161 25 -226 14z"/>
<path d="M3063 3466 c-165 -42 -280 -155 -333 -325 -77 -252 89 -519 358 -573
49 -9 80 -9 143 0 117 17 185 51 264 132 107 112 147 232 127 383 -14 107 -51
177 -137 262 -57 57 -84 75 -142 97 -87 33 -204 44 -280 24z"/>
<path d="M1594 2090 c-42 -9 -71 -31 -100 -74 -48 -71 -23 -156 73 -247 120
-114 281 -200 473 -252 112 -30 121 -31 340 -31 244 -1 301 6 453 55 216 70
418 211 477 333 21 45 22 53 11 95 -21 80 -76 121 -160 121 -49 0 -54 -3 -121
-64 -82 -76 -140 -116 -213 -150 -130 -59 -271 -86 -452 -86 -124 0 -198 12
-312 49 -113 37 -201 89 -285 168 -83 78 -126 97 -184 83z"/>
</g>
</svg>
